<mxfile host="app.diagrams.net" modified="2023-11-09T17:01:12.287Z" agent="Mozilla/5.0 (X11; Linux x86_64) AppleWebKit/537.36 (KHTML, like Gecko) Chrome/118.0.0.0 Safari/537.36" version="22.1.0" etag="Vx4RkJAu1SE6HJhSwvro" type="github">
  <diagram name="Страница — 1" id="1Jm4C6E_1pWx0cgKsHYp">
    <mxGraphModel>
      <root>
        <mxCell id="0" />
        <mxCell id="1" parent="0" />
      </root>
    </mxGraphModel>
  </diagram>
</mxfile>
